<svg xmlns="http://www.w3.org/2000/svg" xmlns:xlink="http://www.w3.org/1999/xlink" contentStyleType="text/css" data-diagram-type="CLASS" height="442px" preserveAspectRatio="none" style="width:338px;height:442px;background:#FFFFFF;" version="1.1" viewBox="0 0 338 442" width="338px" zoomAndPan="magnify"><defs/><g><!--class sensors--><g class="entity" data-entity="sensors" data-source-line="2" data-uid="ent0002" id="entity_sensors"><rect fill="#F1F1F1" height="196.3945" rx="2.5" ry="2.5" style="stroke:#181818;stroke-width:0.5;" width="204.7119" x="66.89" y="7"/><ellipse cx="138.8827" cy="23" fill="#ADD1B2" rx="11" ry="11" style="stroke:#181818;stroke-width:1;"/><path d="M142.4969,29.5 L134.7772,29.5 L134.7772,17.1069 L142.4969,17.1069 L142.4969,19.2651 L137.2259,19.2651 L137.2259,21.938 L141.9989,21.938 L141.9989,24.0962 L137.2259,24.0962 L137.2259,27.3418 L142.4969,27.3418 Z " fill="#000000"/><text fill="#000000" font-family="sans-serif" font-size="14" lengthAdjust="spacing" textLength="52.2266" x="159.3827" y="28.291">sensors</text><line style="stroke:#181818;stroke-width:0.5;" x1="67.89" x2="270.6019" y1="39" y2="39"/><ellipse cx="77.89" cy="52.7441" fill="#000000" rx="3" ry="3" style="stroke:#000000;stroke-width:1;"/><text fill="#000000" font-family="sans-serif" font-size="14" lengthAdjust="spacing" textLength="107.2627" x="86.89" y="56.5352">id : SERIAL &#171;PK&#187;</text><line style="stroke:#181818;stroke-width:1;" x1="67.89" x2="270.6019" y1="63.4883" y2="63.4883"/><ellipse cx="77.89" cy="77.2324" fill="#000000" rx="3" ry="3" style="stroke:#000000;stroke-width:1;"/><text fill="#000000" font-family="sans-serif" font-size="14" lengthAdjust="spacing" textLength="152.3936" x="86.89" y="81.0234">name : VARCHAR(100)</text><ellipse cx="77.89" cy="93.7207" fill="#000000" rx="3" ry="3" style="stroke:#000000;stroke-width:1;"/><text fill="#000000" font-family="sans-serif" font-size="14" lengthAdjust="spacing" textLength="135.4131" x="86.89" y="97.5117">type : VARCHAR(50)</text><ellipse cx="77.89" cy="110.209" fill="#000000" rx="3" ry="3" style="stroke:#000000;stroke-width:1;"/><text fill="#000000" font-family="sans-serif" font-size="14" lengthAdjust="spacing" textLength="169.2236" x="86.89" y="114">location : VARCHAR(100)</text><ellipse cx="77.89" cy="126.6973" fill="#000000" rx="3" ry="3" style="stroke:#000000;stroke-width:1;"/><text fill="#000000" font-family="sans-serif" font-size="14" lengthAdjust="spacing" textLength="93.1602" x="86.89" y="130.4883">value : FLOAT</text><ellipse cx="77.89" cy="143.1855" fill="#000000" rx="3" ry="3" style="stroke:#000000;stroke-width:1;"/><text fill="#000000" font-family="sans-serif" font-size="14" lengthAdjust="spacing" textLength="132.9111" x="86.89" y="146.9766">unit : VARCHAR(20)</text><ellipse cx="77.89" cy="159.6738" fill="#000000" rx="3" ry="3" style="stroke:#000000;stroke-width:1;"/><text fill="#000000" font-family="sans-serif" font-size="14" lengthAdjust="spacing" textLength="147.417" x="86.89" y="163.4648">status : VARCHAR(20)</text><ellipse cx="77.89" cy="176.1621" fill="#000000" rx="3" ry="3" style="stroke:#000000;stroke-width:1;"/><text fill="#000000" font-family="sans-serif" font-size="14" lengthAdjust="spacing" textLength="178.7119" x="86.89" y="179.9531">last_updated : TIMESTAMP</text><ellipse cx="77.89" cy="192.6504" fill="#000000" rx="3" ry="3" style="stroke:#000000;stroke-width:1;"/><text fill="#000000" font-family="sans-serif" font-size="14" lengthAdjust="spacing" textLength="161.916" x="86.89" y="196.4414">created_at : TIMESTAMP</text></g><!--class v2ids--><g class="entity" data-entity="v2ids" data-source-line="15" data-uid="ent0003" id="entity_v2ids"><rect fill="#F1F1F1" height="154.9297" rx="2.5" ry="2.5" style="stroke:#181818;stroke-width:0.5;" width="324.498" x="7" y="280.39"/><ellipse cx="117.4072" cy="296.39" fill="#ADD1B2" rx="11" ry="11" style="stroke:#181818;stroke-width:1;"/><path d="M121.0215,302.89 L113.3018,302.89 L113.3018,290.4969 L121.0215,290.4969 L121.0215,292.6551 L115.7505,292.6551 L115.7505,295.328 L120.5234,295.328 L120.5234,297.4862 L115.7505,297.4862 L115.7505,300.7318 L121.0215,300.7318 Z " fill="#000000"/><text fill="#000000" font-family="sans-serif" font-size="14" lengthAdjust="spacing" textLength="95.1836" x="137.9072" y="301.681">sensor_v2_ids</text><line style="stroke:#181818;stroke-width:0.5;" x1="8" x2="330.498" y1="312.39" y2="312.39"/><ellipse cx="18" cy="326.1341" fill="#000000" rx="3" ry="3" style="stroke:#000000;stroke-width:1;"/><text fill="#000000" font-family="sans-serif" font-size="14" lengthAdjust="spacing" textLength="262.3496" x="27" y="329.9252">manufacturer_id : VARCHAR(100) &#171;PK&#187;</text><ellipse cx="18" cy="342.6224" fill="#000000" rx="3" ry="3" style="stroke:#000000;stroke-width:1;"/><text fill="#000000" font-family="sans-serif" font-size="14" lengthAdjust="spacing" textLength="213.8145" x="27" y="346.4134">device_id : VARCHAR(100) &#171;PK&#187;</text><ellipse cx="18" cy="359.1107" fill="#000000" rx="3" ry="3" style="stroke:#000000;stroke-width:1;"/><text fill="#000000" font-family="sans-serif" font-size="14" lengthAdjust="spacing" textLength="216.0293" x="27" y="362.9017">sensor_id : VARCHAR(100) &#171;PK&#187;</text><line style="stroke:#181818;stroke-width:1;" x1="8" x2="330.498" y1="369.8548" y2="369.8548"/><ellipse cx="18" cy="383.599" fill="#000000" rx="3" ry="3" style="stroke:#000000;stroke-width:1;"/><text fill="#000000" font-family="sans-serif" font-size="14" lengthAdjust="spacing" textLength="119.2666" x="27" y="387.39">id : INTEGER &#171;FK&#187;</text><line style="stroke:#181818;stroke-width:1;" x1="8" x2="330.498" y1="394.3431" y2="394.3431"/><text fill="#000000" font-family="sans-serif" font-size="14" lengthAdjust="spacing" textLength="312.498" x="13" y="411.8783">unique(manufacturer_id, device_id, sensor_id)</text><text fill="#000000" font-family="sans-serif" font-size="14" lengthAdjust="spacing" textLength="59.8965" x="13" y="428.3666">index(id)</text></g><!--link sensors to v2ids--><g class="link" data-entity-1="sensors" data-entity-2="v2ids" data-source-line="26" data-uid="lnk4" id="link_sensors_v2ids"><path codeLine="26" d="M169.25,211.82 C169.25,237.12 169.25,237.99 169.25,262.05" fill="none" id="sensors-v2ids" style="stroke:#181818;stroke-width:1;"/><line style="stroke:#181818;stroke-width:1;" x1="165.25" x2="173.25" y1="207.82" y2="207.82"/><line style="stroke:#181818;stroke-width:1;" x1="165.25" x2="173.25" y1="210.82" y2="210.82"/><line style="stroke:#181818;stroke-width:1;" x1="169.25" x2="169.25" y1="211.82" y2="203.82"/><line style="stroke:#181818;stroke-width:1;" x1="169.25" x2="175.25" y1="272.05" y2="280.05"/><line style="stroke:#181818;stroke-width:1;" x1="169.25" x2="163.25" y1="272.05" y2="280.05"/><line style="stroke:#181818;stroke-width:1;" x1="169.25" x2="169.25" y1="272.05" y2="280.05"/><ellipse cx="169.25" cy="266.05" fill="none" rx="4" ry="4" style="stroke:#181818;stroke-width:1;"/><text fill="#000000" font-family="sans-serif" font-size="13" lengthAdjust="spacing" textLength="98.2236" x="170.25" y="246.9584">&#1080;&#1084;&#1077;&#1077;&#1090; &#1084;&#1072;&#1087;&#1087;&#1080;&#1085;&#1075;</text></g><!--SRC=[VP7HIiCm58Rl-nI7NjMnmYnuCyOWIAV5JKTNl2sXZH3eqjaanR5vunC9CjY5uYjaRsGQ8-raZDmS_ly_d7E-42QeM8FB2UDbnLt076mD6mUW1pI78Ip2E49J68tcT-EnbdtVU0mlYNOVKNnzYsBlSZ2uCBfOhxhwbPMBCiE2bknKIuqBsVHCfWyeCOfaL7IIWGroWONa9um2Sv7ALOu5QLPEebcuID1iRioi8esUOd5alJeEEIAGra5AyryETQ0hIs69cNp2cP0LgLA3f7j12wO7EQbfHivdxAmp6GlO9ABx9Bm9OsrEEgR6yoo9zs-nVZk_tuvf056ManUlgVNHVr-ytVf-kR6N3i5LU_MfTcftU0DTlAjl_VRgItsupWy0]--></g></svg>